# xmcd
# 
# Track frame offsets:
#     150
#     18717
#     36780
# 
# Disc length: 727
# 
# Revision: 3
# Processed by: cddbd v1.5.2PL0 Copyright (c) Steve Scherf et al.
# Submitted via: fre:ac v1.0.17
# 
DISCID=1e02d503
DTITLE=KAT-TUN - TO THE LIMIT
DYEAR=2012
DGENRE=JPop
TTITLE0=TO THE LIMIT
TTITLE1=WALKING IN THE LIGHT
TTITLE2=WALKING IN THE LIGHT (original karaoke)
EXTD=
EXTT0=
EXTT1=
EXTT2=
PLAYORDER=
